# xmcd CD database file
#
# Track frame offsets:
#	183
#	14383
#	28083
#	41508
#	57383
#	73883
#	89358
#	102358
#	113645
#	127473
#	143668
#	163083
#	178033
#
# Disc length: 2649 seconds
#
# Revision: 1
# Processed by: cddbd v1.5PL3 Copyright (c) Steve Scherf et al.
# Submitted via: CDex 1.51
#
DISCID=bc0a570d
DTITLE=Vari - La scuola milanse
DYEAR=1990
DGENRE=
TTITLE0=Giorgio Gaber - Come è bella la città
TTITLE1=Enzo Jannacci - Vengo anch'io no tu no
TTITLE2=Memo Remigi - Innammorati a Milano
TTITLE3=Giorgio Gaber - Le strade di notte
TTITLE4=Enzo Jannacci - Ragazzo padre
TTITLE5=tony Renis - Il mio posto
TTITLE6=Memo Remigi - Una famiglia
TTITLE7=Giorgio Gaber - Chiedo scusa se parlo di Maria
TTITLE8=Enzo Jannacci - Boao marenda
TTITLE9=Ricky Gianco - Compagno si, compagno no, compagno un caz
TTITLE10=Alberto Fortis - Assolutamente tuo
TTITLE11=Alberto Camerini - Proprio tu
TTITLE12=Fanigliulo - Grande
EXTD=YEAR: 1990
EXTT0=
EXTT1=
EXTT2=
EXTT3=
EXTT4=
EXTT5=
EXTT6=
EXTT7=
EXTT8=
EXTT9=
EXTT10=
EXTT11=
EXTT12=
PLAYORDER=
